<svg version="1.1" id="Layer_1" xmlns="http://www.w3.org/2000/svg" xmlns:xlink="http://www.w3.org/1999/xlink" x="0px" y="0px"
	 width="100%" viewBox="0 0 512 512" enable-background="new 0 0 512 512" xml:space="preserve">
<path fill="#FFFFFF" opacity="1.000000" stroke="none" 
	d="
M239.000000,513.000000 
	C159.706818,513.000000 80.413643,513.000000 1.060233,513.000000 
	C1.060233,342.333344 1.060233,171.666672 1.060233,1.000000 
	C36.768761,1.000000 72.417397,1.000000 108.403290,1.380193 
	C104.204857,2.845109 99.669167,3.929833 95.260918,4.984079 
	C101.427322,29.134972 107.406815,52.553783 113.460571,76.263481 
	C118.690033,75.041328 123.774223,74.141182 128.614182,72.514412 
	C129.787491,72.120049 131.092407,69.103676 130.747894,67.676529 
	C127.551842,54.436710 123.949013,41.295876 120.585297,28.095463 
	C118.290314,19.089094 116.188293,10.033554 114.000000,1.000000 
	C246.949234,1.000000 379.898468,1.000000 512.923828,1.000000 
	C512.923828,171.550735 512.923828,342.101501 512.923828,513.000000 
	C437.978333,513.000000 362.956146,513.000000 287.557709,512.654663 
	C296.876251,508.684479 300.846222,497.717651 298.366974,486.304077 
	C274.604797,486.304077 250.881149,486.304077 227.206238,486.304077 
	C226.151245,497.628723 228.108078,507.318329 239.000000,513.000000 
M201.000000,408.484009 
	C201.000015,411.482880 200.834045,414.492554 201.028152,417.478790 
	C201.972733,432.009918 212.413803,442.775757 226.986542,442.930786 
	C250.979279,443.186035 274.976776,442.964752 298.972137,443.013306 
	C313.224182,443.042175 324.717926,431.475616 325.008789,417.046051 
	C325.302521,402.472504 324.857452,387.823181 326.237732,373.350250 
	C327.510864,360.001038 334.774048,348.740234 345.702423,341.340912 
	C359.407318,332.061646 371.612549,321.331482 382.969635,309.467560 
	C384.102661,308.283966 384.909882,306.788452 385.498352,305.959137 
	C382.517365,305.959137 379.600067,306.256317 376.765411,305.898438 
	C370.497467,305.107086 364.279663,303.928192 358.025879,303.013245 
	C348.219360,301.578552 338.370911,300.405609 328.598114,298.775055 
	C323.566925,297.935608 320.893036,294.194000 321.044800,289.018616 
	C321.120697,286.430420 321.645294,283.852997 322.003998,281.275879 
	C323.124298,273.227509 323.786072,265.074677 325.560150,257.172119 
	C326.751190,251.866730 325.066833,247.760757 321.002563,246.015854 
	C317.952148,244.706223 312.836334,245.039886 310.063965,246.837723 
	C301.383881,252.466797 293.354767,259.105194 285.118378,265.411224 
	C277.854980,270.972351 274.228973,268.818115 270.089294,263.366089 
	C260.399048,250.603882 250.964157,237.647949 241.300568,224.865204 
	C237.416565,219.727539 237.526093,214.953690 242.492081,211.084442 
	C250.804428,204.607941 259.115387,198.097702 267.796173,192.139664 
	C272.076050,189.202194 273.810669,185.437424 272.800781,180.986542 
	C271.731232,176.272858 267.826599,174.415222 262.908478,173.907211 
	C252.890182,172.872437 242.809189,171.868668 232.974197,169.803589 
	C223.838760,167.885406 223.106232,163.839081 224.510818,155.920609 
	C225.502975,150.327362 226.235153,144.685669 226.988205,139.052872 
	C228.367203,128.737930 229.593430,118.401863 231.057632,108.099380 
	C231.583267,104.400871 236.063828,100.674149 239.815140,101.068993 
	C250.987183,102.244896 262.220947,103.236122 273.235809,105.326118 
	C278.368134,106.299942 281.797058,104.784225 284.012573,101.157051 
	C286.174744,97.617256 285.809631,93.280220 283.127625,89.712891 
	C276.694672,81.156395 270.040161,72.764221 263.710052,64.133392 
	C259.432831,58.301537 260.690521,55.089985 266.460602,50.186356 
	C267.528992,49.278393 268.725464,48.521152 270.503815,47.228382 
	C248.709213,45.935406 228.692032,48.901188 209.324905,56.022575 
	C184.271317,65.234909 162.610229,79.378174 144.809113,99.521172 
	C134.213806,111.510399 125.849197,124.692345 118.878548,139.051392 
	C108.603432,160.217361 104.922112,182.714676 104.139473,205.831436 
	C103.903633,212.797470 105.208542,219.834167 106.021782,226.813538 
	C107.994476,243.743698 112.977684,259.802032 120.553215,275.041595 
	C126.249107,286.499908 132.391205,297.759247 141.515091,306.902435 
	C150.421463,315.827637 159.563553,324.544006 168.995392,332.908691 
	C174.795364,338.052429 182.112518,341.630341 187.367844,347.211365 
	C196.636093,357.053986 201.261124,369.207764 201.025513,382.993958 
	C200.886002,391.156708 201.000000,399.323761 201.000000,408.484009 
M407.555786,25.999794 
	C397.182251,24.461554 386.808746,22.923315 376.219025,21.353018 
	C375.826019,22.499817 375.212799,23.674150 375.034271,24.911207 
	C373.967651,32.302990 373.252899,39.754017 371.945221,47.100643 
	C369.704559,59.688843 362.786774,66.284912 351.966003,68.782898 
	C341.969696,71.090553 331.959076,67.422050 324.966675,57.897091 
	C320.011841,51.147610 314.847504,44.551918 309.892700,38.040051 
	C299.939301,45.532066 290.410736,52.704285 281.070374,59.734859 
	C286.869537,67.837311 292.689056,75.601707 298.105835,83.637558 
	C303.721191,91.967926 303.356689,100.725288 298.298889,109.131195 
	C293.587555,116.961243 286.597900,122.204178 277.242523,121.833611 
	C266.913605,121.424484 256.635803,119.724251 246.283234,118.580582 
	C246.042984,120.506660 245.780197,122.768890 245.475861,125.025528 
	C244.324585,133.561920 243.193695,142.101288 241.981918,150.629135 
	C241.549530,153.672119 243.206284,154.650146 245.790756,155.006378 
	C252.863495,155.981201 259.932770,156.982025 266.999146,158.002151 
	C277.191620,159.473572 286.599152,167.571564 288.953400,176.866943 
	C291.415131,186.586548 286.459717,199.169495 278.040039,205.019272 
	C272.465393,208.892426 266.991364,212.915176 261.562317,216.990891 
	C259.282776,218.702194 257.606720,220.568008 260.720337,223.357178 
	C262.480286,224.933762 263.560242,227.253418 265.024323,229.179199 
	C270.080597,235.829956 275.171051,242.454727 280.008484,248.775742 
	C288.347412,242.753799 296.027344,236.774719 304.145691,231.466095 
	C312.374695,226.085114 320.981171,226.903061 329.282928,231.755417 
	C336.827606,236.165314 341.905762,242.787643 341.781219,251.469543 
	C341.630951,261.944092 339.852203,272.395325 338.742371,283.207062 
	C339.082428,283.358978 339.762115,283.847626 340.499908,283.962158 
	C345.150787,284.684082 349.808868,285.366669 354.475616,285.977905 
	C359.963104,286.696686 365.450287,287.542664 370.964294,287.841858 
	C372.253845,287.911804 374.623322,286.176605 374.839233,284.974396 
	C376.158630,277.627869 376.922943,270.184113 378.020569,262.794769 
	C379.532928,252.613541 387.987854,242.763611 397.104858,241.076202 
	C408.180450,239.026291 417.580505,242.443359 424.631226,251.266708 
	C429.164215,256.939392 433.078583,263.104126 437.538818,268.839447 
	C438.370392,269.908752 441.157257,270.916870 441.892914,270.379730 
	C451.064392,263.683594 460.023560,256.696716 468.932800,249.864578 
	C463.307159,242.394928 457.463531,235.406998 452.568085,227.808197 
	C450.144684,224.046524 448.338379,219.195740 448.198364,214.776077 
	C447.636505,197.040848 462.806824,184.809601 481.662598,188.249252 
	C488.943115,189.577362 496.314941,190.404892 503.338440,191.416306 
	C504.326385,185.653427 505.257690,180.880692 505.939423,176.072556 
	C506.739502,170.429642 507.529297,164.767441 507.844391,159.087036 
	C507.916840,157.780869 506.214233,155.377426 505.025208,155.163345 
	C497.679443,153.840561 490.192200,153.294159 482.855774,151.931000 
	C471.156769,149.757187 464.198883,143.863190 461.331177,132.367737 
	C458.840118,122.382080 462.148376,112.542702 471.294067,105.338524 
	C477.000061,100.843842 483.071442,96.815033 488.935516,92.518036 
	C491.134064,90.907043 491.565094,89.428955 489.533539,86.835281 
	C482.888458,78.351395 476.649261,69.549599 470.224091,60.829464 
	C462.732147,66.429840 455.668640,72.144241 448.163269,77.203087 
	C440.014801,82.695389 431.230316,83.969612 422.155060,79.029488 
	C414.261963,74.732849 408.303345,68.325562 408.271393,59.348480 
	C408.232361,48.360504 410.198700,37.365402 411.317078,26.181770 
	C410.723511,26.144131 409.586975,26.072063 407.555786,25.999794 
M35.188599,326.028870 
	C35.477673,326.192078 35.750393,326.452698 36.058182,326.504333 
	C47.485210,328.421295 54.672733,343.930878 46.159004,353.708954 
	C41.481155,359.081512 38.038269,365.529297 34.497452,370.808197 
	C40.247829,376.774567 45.648960,382.378601 51.043053,387.975311 
	C57.024380,383.822418 62.986248,379.686951 68.944092,375.545715 
	C81.166046,367.050323 94.062431,376.190277 96.014847,386.580292 
	C97.347267,393.670929 98.862595,400.727173 100.336838,407.999512 
	C106.814667,407.999512 113.139229,408.184113 119.435204,407.842255 
	C120.679817,407.774658 122.531464,405.863037 122.877403,404.492432 
	C124.492241,398.094604 125.126556,391.411530 127.133537,385.158478 
	C131.040512,372.985748 143.304688,367.703522 154.773819,376.222992 
	C160.431152,380.425293 166.329819,384.302765 172.210159,388.390381 
	C178.183548,382.387695 183.888687,376.793732 189.376251,370.993927 
	C190.223618,370.098297 190.682922,368.047974 190.283905,366.888977 
	C187.772888,359.595184 183.863281,353.270203 177.344696,348.703064 
	C171.638824,344.705383 166.122452,340.425995 160.661957,336.095001 
	C158.528381,334.402710 157.370834,334.719025 155.977112,336.921539 
	C143.454956,356.710327 125.728249,365.218658 102.314133,362.052734 
	C76.696861,358.588959 55.577675,331.302216 59.774876,304.351471 
	C63.316525,281.610138 78.078522,266.468811 98.612556,260.160400 
	C100.756203,259.501862 103.005753,259.187988 104.985695,258.761688 
	C102.488853,247.937851 100.208344,238.051834 97.758018,227.429672 
	C96.672462,231.262390 95.667419,234.150650 95.046463,237.119247 
	C92.566902,248.973557 77.178993,252.177933 69.394569,246.135788 
	C63.577190,241.620422 57.132057,237.913834 50.387260,233.465073 
	C47.749001,236.322159 45.228432,239.188156 42.557663,241.906586 
	C39.759163,244.755005 36.816486,247.461761 33.895847,250.269821 
	C37.965656,256.107758 41.604218,261.821198 45.735775,267.152527 
	C54.825893,278.882385 47.653728,292.377777 37.564613,294.930786 
	C31.011980,296.588928 24.314068,297.674896 17.677389,298.997864 
	C15.460196,299.439850 13.837927,300.088379 13.936574,302.993652 
	C14.145167,309.136902 14.000108,315.292114 14.000108,321.695801 
	C20.882076,323.152466 27.612774,324.577087 35.188599,326.028870 
M73.347015,78.030663 
	C59.120560,68.009659 44.894108,57.988655 30.669243,47.968769 
	C26.995480,53.124523 23.381912,58.195797 19.658161,63.421703 
	C22.162188,65.094810 24.343105,66.468506 26.436903,67.964172 
	C44.046986,80.543602 61.699207,93.065796 79.176971,105.826790 
	C81.779045,107.726624 83.102257,106.822227 84.468010,104.966820 
	C87.420387,100.955933 90.207626,96.823479 93.131760,92.641586 
	C86.674156,87.860947 80.316727,83.154465 73.347015,78.030663 
M47.576855,161.002487 
	C58.742306,158.249344 69.907761,155.496201 81.221260,152.706558 
	C79.631790,146.510437 78.166222,140.797302 76.579956,134.613663 
	C52.876595,140.540176 29.446388,146.398392 5.615568,152.356781 
	C6.818101,157.915665 7.792293,163.128174 9.198082,168.221542 
	C9.433225,169.073517 11.719175,170.128281 12.756749,169.871948 
	C24.113535,167.066376 35.410538,164.018814 47.576855,161.002487 
M264.500000,451.000000 
	C252.071335,451.000000 239.642685,451.000000 227.287857,451.000000 
	C227.287857,457.646484 227.287857,463.717377 227.287857,469.714813 
	C251.311203,469.714813 275.045593,469.714813 298.712189,469.714813 
	C298.712189,463.353607 298.712189,457.282715 298.712189,451.000000 
	C287.450409,451.000000 276.475189,451.000000 264.500000,451.000000 
M423.449280,394.968445 
	C438.284454,407.438263 453.119629,419.908051 468.196777,432.581238 
	C472.046295,428.265106 475.638092,424.421021 478.940399,420.342529 
	C479.449524,419.713684 479.069153,417.505493 478.354248,416.879089 
	C471.971161,411.286560 465.420746,405.885040 458.919312,400.427582 
	C448.318878,391.529297 437.718231,382.631256 426.772125,373.443085 
	C422.611938,378.487823 418.706329,383.223846 414.722076,388.055237 
	C417.636658,390.315887 420.295837,392.378479 423.449280,394.968445 
M377.000000,431.500000 
	C377.000000,441.263092 377.000000,451.026215 377.000000,460.711853 
	C383.313110,460.711853 389.051239,460.711853 394.714478,460.711853 
	C394.714478,439.687866 394.714478,418.953217 394.714478,398.288086 
	C388.687012,398.288086 382.948883,398.288086 377.000000,398.288086 
	C377.000000,409.216583 377.000000,419.858307 377.000000,431.500000 
M446.501770,346.000000 
	C461.595642,346.000000 476.689484,346.000000 491.712891,346.000000 
	C491.712891,339.687836 491.712891,333.950287 491.712891,328.284760 
	C471.023041,328.284760 450.621582,328.284760 430.000000,328.284760 
	C430.000000,331.377747 430.000000,334.187988 430.000000,336.998230 
	C430.000000,339.935303 430.000000,342.872375 430.000000,346.000000 
	C435.549042,346.000000 440.526154,346.000000 446.501770,346.000000 
M404.035919,277.607758 
	C406.160461,273.115692 408.604279,268.734894 410.230774,264.069183 
	C410.775970,262.505310 409.858398,259.397980 408.543518,258.398743 
	C402.964050,254.158630 395.081268,258.133087 394.025177,265.502869 
	C392.350037,277.192535 390.780792,288.897339 389.166748,300.595764 
	C389.497131,300.806152 389.827484,301.016541 390.157867,301.226929 
	C394.760590,293.609344 399.363312,285.991760 404.035919,277.607758 
z"/>
<path fill="#000000" opacity="1.000000" stroke="none" 
	d="
M239.468658,513.000000 
	C228.108078,507.318329 226.151245,497.628723 227.206238,486.304077 
	C250.881149,486.304077 274.604797,486.304077 298.366974,486.304077 
	C300.846222,497.717651 296.876251,508.684479 287.090729,512.654663 
	C271.312439,513.000000 255.624878,513.000000 239.468658,513.000000 
z"/>
<path fill="#000000" opacity="1.000000" stroke="none" 
	d="
M113.583336,1.000000 
	C116.188293,10.033554 118.290314,19.089094 120.585297,28.095463 
	C123.949013,41.295876 127.551842,54.436710 130.747894,67.676529 
	C131.092407,69.103676 129.787491,72.120049 128.614182,72.514412 
	C123.774223,74.141182 118.690033,75.041328 113.460571,76.263481 
	C107.406815,52.553783 101.427322,29.134972 95.260918,4.984079 
	C99.669167,3.929833 104.204857,2.845109 108.870270,1.380193 
	C110.388893,1.000000 111.777779,1.000000 113.583336,1.000000 
z"/>
<path fill="#000000" opacity="1.000000" stroke="none" 
	d="
M201.000000,407.986450 
	C201.000000,399.323761 200.886002,391.156708 201.025513,382.993958 
	C201.261124,369.207764 196.636093,357.053986 187.367844,347.211365 
	C182.112518,341.630341 174.795364,338.052429 168.995392,332.908691 
	C159.563553,324.544006 150.421463,315.827637 141.515091,306.902435 
	C132.391205,297.759247 126.249107,286.499908 120.553215,275.041595 
	C112.977684,259.802032 107.994476,243.743698 106.021782,226.813538 
	C105.208542,219.834167 103.903633,212.797470 104.139473,205.831436 
	C104.922112,182.714676 108.603432,160.217361 118.878548,139.051392 
	C125.849197,124.692345 134.213806,111.510399 144.809113,99.521172 
	C162.610229,79.378174 184.271317,65.234909 209.324905,56.022575 
	C228.692032,48.901188 248.709213,45.935406 270.503815,47.228382 
	C268.725464,48.521152 267.528992,49.278393 266.460602,50.186356 
	C260.690521,55.089985 259.432831,58.301537 263.710052,64.133392 
	C270.040161,72.764221 276.694672,81.156395 283.127625,89.712891 
	C285.809631,93.280220 286.174744,97.617256 284.012573,101.157051 
	C281.797058,104.784225 278.368134,106.299942 273.235809,105.326118 
	C262.220947,103.236122 250.987183,102.244896 239.815140,101.068993 
	C236.063828,100.674149 231.583267,104.400871 231.057632,108.099380 
	C229.593430,118.401863 228.367203,128.737930 226.988205,139.052872 
	C226.235153,144.685669 225.502975,150.327362 224.510818,155.920609 
	C223.106232,163.839081 223.838760,167.885406 232.974197,169.803589 
	C242.809189,171.868668 252.890182,172.872437 262.908478,173.907211 
	C267.826599,174.415222 271.731232,176.272858 272.800781,180.986542 
	C273.810669,185.437424 272.076050,189.202194 267.796173,192.139664 
	C259.115387,198.097702 250.804428,204.607941 242.492081,211.084442 
	C237.526093,214.953690 237.416565,219.727539 241.300568,224.865204 
	C250.964157,237.647949 260.399048,250.603882 270.089294,263.366089 
	C274.228973,268.818115 277.854980,270.972351 285.118378,265.411224 
	C293.354767,259.105194 301.383881,252.466797 310.063965,246.837723 
	C312.836334,245.039886 317.952148,244.706223 321.002563,246.015854 
	C325.066833,247.760757 326.751190,251.866730 325.560150,257.172119 
	C323.786072,265.074677 323.124298,273.227509 322.003998,281.275879 
	C321.645294,283.852997 321.120697,286.430420 321.044800,289.018616 
	C320.893036,294.194000 323.566925,297.935608 328.598114,298.775055 
	C338.370911,300.405609 348.219360,301.578552 358.025879,303.013245 
	C364.279663,303.928192 370.497467,305.107086 376.765411,305.898438 
	C379.600067,306.256317 382.517365,305.959137 385.498352,305.959137 
	C384.909882,306.788452 384.102661,308.283966 382.969635,309.467560 
	C371.612549,321.331482 359.407318,332.061646 345.702423,341.340912 
	C334.774048,348.740234 327.510864,360.001038 326.237732,373.350250 
	C324.857452,387.823181 325.302521,402.472504 325.008789,417.046051 
	C324.717926,431.475616 313.224182,443.042175 298.972137,443.013306 
	C274.976776,442.964752 250.979279,443.186035 226.986542,442.930786 
	C212.413803,442.775757 201.972733,432.009918 201.028152,417.478790 
	C200.834045,414.492554 201.000015,411.482880 201.000000,407.986450 
M158.964096,141.399658 
	C157.980438,142.883530 156.879974,144.303696 156.030579,145.860809 
	C142.830719,170.058273 138.231171,195.856476 142.032639,223.107193 
	C144.254227,239.032608 149.498428,253.877502 157.888107,267.725739 
	C166.276566,281.571991 176.122025,294.149811 189.716568,302.947815 
	C200.718750,310.068146 212.789474,315.515076 224.175369,322.070526 
	C237.826157,329.929932 248.407318,340.501648 252.120239,356.501434 
	C253.306625,361.613770 254.280334,366.775452 255.300354,371.669861 
	C260.756653,371.669861 265.834595,371.669861 271.427399,371.669861 
	C270.922760,367.075287 270.866180,362.771851 269.930695,358.668823 
	C264.574707,335.177460 251.765823,317.423279 229.615692,306.933258 
	C222.227692,303.434418 214.758713,300.016327 207.716583,295.895172 
	C189.818146,285.420807 176.383148,270.425049 167.581360,251.865662 
	C157.772980,231.183792 154.608002,209.369965 158.849686,186.438766 
	C162.700668,165.619690 171.548035,147.611176 186.150864,132.511871 
	C192.148010,126.310822 199.047699,120.982628 205.520462,115.271858 
	C202.964203,111.162048 200.192093,106.705193 197.152679,101.818588 
	C191.701935,106.115097 185.636826,109.865303 180.893433,114.868568 
	C173.152405,123.033714 166.273392,132.016113 158.964096,141.399658 
M255.742859,390.057495 
	C255.742859,398.575958 255.742859,407.094421 255.742859,415.791229 
	C260.483398,415.791229 265.554535,415.791229 270.788391,415.791229 
	C270.788391,407.177368 270.788391,398.772949 270.788391,390.003998 
	C265.960571,390.003998 261.334778,390.003998 255.742859,390.057495 
z"/>
<path fill="#000000" opacity="1.000000" stroke="none" 
	d="
M408.003113,25.999893 
	C409.586975,26.072063 410.723511,26.144131 411.317078,26.181770 
	C410.198700,37.365402 408.232361,48.360504 408.271393,59.348480 
	C408.303345,68.325562 414.261963,74.732849 422.155060,79.029488 
	C431.230316,83.969612 440.014801,82.695389 448.163269,77.203087 
	C455.668640,72.144241 462.732147,66.429840 470.224091,60.829464 
	C476.649261,69.549599 482.888458,78.351395 489.533539,86.835281 
	C491.565094,89.428955 491.134064,90.907043 488.935516,92.518036 
	C483.071442,96.815033 477.000061,100.843842 471.294067,105.338524 
	C462.148376,112.542702 458.840118,122.382080 461.331177,132.367737 
	C464.198883,143.863190 471.156769,149.757187 482.855774,151.931000 
	C490.192200,153.294159 497.679443,153.840561 505.025208,155.163345 
	C506.214233,155.377426 507.916840,157.780869 507.844391,159.087036 
	C507.529297,164.767441 506.739502,170.429642 505.939423,176.072556 
	C505.257690,180.880692 504.326385,185.653427 503.338440,191.416306 
	C496.314941,190.404892 488.943115,189.577362 481.662598,188.249252 
	C462.806824,184.809601 447.636505,197.040848 448.198364,214.776077 
	C448.338379,219.195740 450.144684,224.046524 452.568085,227.808197 
	C457.463531,235.406998 463.307159,242.394928 468.932800,249.864578 
	C460.023560,256.696716 451.064392,263.683594 441.892914,270.379730 
	C441.157257,270.916870 438.370392,269.908752 437.538818,268.839447 
	C433.078583,263.104126 429.164215,256.939392 424.631226,251.266708 
	C417.580505,242.443359 408.180450,239.026291 397.104858,241.076202 
	C387.987854,242.763611 379.532928,252.613541 378.020569,262.794769 
	C376.922943,270.184113 376.158630,277.627869 374.839233,284.974396 
	C374.623322,286.176605 372.253845,287.911804 370.964294,287.841858 
	C365.450287,287.542664 359.963104,286.696686 354.475616,285.977905 
	C349.808868,285.366669 345.150787,284.684082 340.499908,283.962158 
	C339.762115,283.847626 339.082428,283.358978 338.742371,283.207062 
	C339.852203,272.395325 341.630951,261.944092 341.781219,251.469543 
	C341.905762,242.787643 336.827606,236.165314 329.282928,231.755417 
	C320.981171,226.903061 312.374695,226.085114 304.145691,231.466095 
	C296.027344,236.774719 288.347412,242.753799 280.008484,248.775742 
	C275.171051,242.454727 270.080597,235.829956 265.024323,229.179199 
	C263.560242,227.253418 262.480286,224.933762 260.720337,223.357178 
	C257.606720,220.568008 259.282776,218.702194 261.562317,216.990891 
	C266.991364,212.915176 272.465393,208.892426 278.040039,205.019272 
	C286.459717,199.169495 291.415131,186.586548 288.953400,176.866943 
	C286.599152,167.571564 277.191620,159.473572 266.999146,158.002151 
	C259.932770,156.982025 252.863495,155.981201 245.790756,155.006378 
	C243.206284,154.650146 241.549530,153.672119 241.981918,150.629135 
	C243.193695,142.101288 244.324585,133.561920 245.475861,125.025528 
	C245.780197,122.768890 246.042984,120.506660 246.283234,118.580582 
	C256.635803,119.724251 266.913605,121.424484 277.242523,121.833611 
	C286.597900,122.204178 293.587555,116.961243 298.298889,109.131195 
	C303.356689,100.725288 303.721191,91.967926 298.105835,83.637558 
	C292.689056,75.601707 286.869537,67.837311 281.070374,59.734859 
	C290.410736,52.704285 299.939301,45.532066 309.892700,38.040051 
	C314.847504,44.551918 320.011841,51.147610 324.966675,57.897091 
	C331.959076,67.422050 341.969696,71.090553 351.966003,68.782898 
	C362.786774,66.284912 369.704559,59.688843 371.945221,47.100643 
	C373.252899,39.754017 373.967651,32.302990 375.034271,24.911207 
	C375.212799,23.674150 375.826019,22.499817 376.219025,21.353018 
	C386.808746,22.923315 397.182251,24.461554 408.003113,25.999893 
M387.886292,205.638779 
	C400.566101,201.819733 411.470276,194.903168 418.471313,183.775818 
	C431.844940,162.519806 430.261597,138.327972 412.759247,119.447212 
	C402.135345,107.986633 388.709595,102.161858 372.686005,102.959114 
	C354.577362,103.860115 340.814728,112.465324 331.134155,127.176834 
	C323.703369,138.469330 321.008087,151.184921 323.962769,164.809708 
	C328.139343,184.068924 339.638611,196.841293 357.769806,204.026550 
	C367.360046,207.827087 377.170105,207.555344 387.886292,205.638779 
z"/>
<path fill="#000000" opacity="1.000000" stroke="none" 
	d="
M34.766037,326.015289 
	C27.612774,324.577087 20.882076,323.152466 14.000108,321.695801 
	C14.000108,315.292114 14.145167,309.136902 13.936574,302.993652 
	C13.837927,300.088379 15.460196,299.439850 17.677389,298.997864 
	C24.314068,297.674896 31.011980,296.588928 37.564613,294.930786 
	C47.653728,292.377777 54.825893,278.882385 45.735775,267.152527 
	C41.604218,261.821198 37.965656,256.107758 33.895847,250.269821 
	C36.816486,247.461761 39.759163,244.755005 42.557663,241.906586 
	C45.228432,239.188156 47.749001,236.322159 50.387260,233.465073 
	C57.132057,237.913834 63.577190,241.620422 69.394569,246.135788 
	C77.178993,252.177933 92.566902,248.973557 95.046463,237.119247 
	C95.667419,234.150650 96.672462,231.262390 97.758018,227.429672 
	C100.208344,238.051834 102.488853,247.937851 104.985695,258.761688 
	C103.005753,259.187988 100.756203,259.501862 98.612556,260.160400 
	C78.078522,266.468811 63.316525,281.610138 59.774876,304.351471 
	C55.577675,331.302216 76.696861,358.588959 102.314133,362.052734 
	C125.728249,365.218658 143.454956,356.710327 155.977112,336.921539 
	C157.370834,334.719025 158.528381,334.402710 160.661957,336.095001 
	C166.122452,340.425995 171.638824,344.705383 177.344696,348.703064 
	C183.863281,353.270203 187.772888,359.595184 190.283905,366.888977 
	C190.682922,368.047974 190.223618,370.098297 189.376251,370.993927 
	C183.888687,376.793732 178.183548,382.387695 172.210159,388.390381 
	C166.329819,384.302765 160.431152,380.425293 154.773819,376.222992 
	C143.304688,367.703522 131.040512,372.985748 127.133537,385.158478 
	C125.126556,391.411530 124.492241,398.094604 122.877403,404.492432 
	C122.531464,405.863037 120.679817,407.774658 119.435204,407.842255 
	C113.139229,408.184113 106.814667,407.999512 100.336838,407.999512 
	C98.862595,400.727173 97.347267,393.670929 96.014847,386.580292 
	C94.062431,376.190277 81.166046,367.050323 68.944092,375.545715 
	C62.986248,379.686951 57.024380,383.822418 51.043053,387.975311 
	C45.648960,382.378601 40.247829,376.774567 34.497452,370.808197 
	C38.038269,365.529297 41.481155,359.081512 46.159004,353.708954 
	C54.672733,343.930878 47.485210,328.421295 36.058182,326.504333 
	C35.750393,326.452698 35.477673,326.192078 34.766037,326.015289 
z"/>
<path fill="#000000" opacity="1.000000" stroke="none" 
	d="
M73.653152,78.239319 
	C80.316727,83.154465 86.674156,87.860947 93.131760,92.641586 
	C90.207626,96.823479 87.420387,100.955933 84.468010,104.966820 
	C83.102257,106.822227 81.779045,107.726624 79.176971,105.826790 
	C61.699207,93.065796 44.046986,80.543602 26.436903,67.964172 
	C24.343105,66.468506 22.162188,65.094810 19.658161,63.421703 
	C23.381912,58.195797 26.995480,53.124523 30.669243,47.968769 
	C44.894108,57.988655 59.120560,68.009659 73.653152,78.239319 
z"/>
<path fill="#000000" opacity="1.000000" stroke="none" 
	d="
M47.150322,161.019745 
	C35.410538,164.018814 24.113535,167.066376 12.756749,169.871948 
	C11.719175,170.128281 9.433225,169.073517 9.198082,168.221542 
	C7.792293,163.128174 6.818101,157.915665 5.615568,152.356781 
	C29.446388,146.398392 52.876595,140.540176 76.579956,134.613663 
	C78.166222,140.797302 79.631790,146.510437 81.221260,152.706558 
	C69.907761,155.496201 58.742306,158.249344 47.150322,161.019745 
z"/>
<path fill="#000000" opacity="1.000000" stroke="none" 
	d="
M265.000000,451.000000 
	C276.475189,451.000000 287.450409,451.000000 298.712189,451.000000 
	C298.712189,457.282715 298.712189,463.353607 298.712189,469.714813 
	C275.045593,469.714813 251.311203,469.714813 227.287857,469.714813 
	C227.287857,463.717377 227.287857,457.646484 227.287857,451.000000 
	C239.642685,451.000000 252.071335,451.000000 265.000000,451.000000 
z"/>
<path fill="#000000" opacity="1.000000" stroke="none" 
	d="
M423.202148,394.704742 
	C420.295837,392.378479 417.636658,390.315887 414.722076,388.055237 
	C418.706329,383.223846 422.611938,378.487823 426.772125,373.443085 
	C437.718231,382.631256 448.318878,391.529297 458.919312,400.427582 
	C465.420746,405.885040 471.971161,411.286560 478.354248,416.879089 
	C479.069153,417.505493 479.449524,419.713684 478.940399,420.342529 
	C475.638092,424.421021 472.046295,428.265106 468.196777,432.581238 
	C453.119629,419.908051 438.284454,407.438263 423.202148,394.704742 
z"/>
<path fill="#000000" opacity="1.000000" stroke="none" 
	d="
M377.000000,431.000000 
	C377.000000,419.858307 377.000000,409.216583 377.000000,398.288086 
	C382.948883,398.288086 388.687012,398.288086 394.714478,398.288086 
	C394.714478,418.953217 394.714478,439.687866 394.714478,460.711853 
	C389.051239,460.711853 383.313110,460.711853 377.000000,460.711853 
	C377.000000,451.026215 377.000000,441.263092 377.000000,431.000000 
z"/>
<path fill="#000000" opacity="1.000000" stroke="none" 
	d="
M446.002533,346.000000 
	C440.526154,346.000000 435.549042,346.000000 430.000000,346.000000 
	C430.000000,342.872375 430.000000,339.935303 430.000000,336.998230 
	C430.000000,334.187988 430.000000,331.377747 430.000000,328.284760 
	C450.621582,328.284760 471.023041,328.284760 491.712891,328.284760 
	C491.712891,333.950287 491.712891,339.687836 491.712891,346.000000 
	C476.689484,346.000000 461.595642,346.000000 446.002533,346.000000 
z"/>
<path fill="#000000" opacity="1.000000" stroke="none" 
	d="
M404.000977,277.990967 
	C399.363312,285.991760 394.760590,293.609344 390.157867,301.226929 
	C389.827484,301.016541 389.497131,300.806152 389.166748,300.595764 
	C390.780792,288.897339 392.350037,277.192535 394.025177,265.502869 
	C395.081268,258.133087 402.964050,254.158630 408.543518,258.398743 
	C409.858398,259.397980 410.775970,262.505310 410.230774,264.069183 
	C408.604279,268.734894 406.160461,273.115692 404.000977,277.990967 
z"/>
<path fill="#FFFFFF" opacity="1.000000" stroke="none" 
	d="
M158.997375,141.026672 
	C166.273392,132.016113 173.152405,123.033714 180.893433,114.868568 
	C185.636826,109.865303 191.701935,106.115097 197.152679,101.818588 
	C200.192093,106.705193 202.964203,111.162048 205.520462,115.271858 
	C199.047699,120.982628 192.148010,126.310822 186.150864,132.511871 
	C171.548035,147.611176 162.700668,165.619690 158.849686,186.438766 
	C154.608002,209.369965 157.772980,231.183792 167.581360,251.865662 
	C176.383148,270.425049 189.818146,285.420807 207.716583,295.895172 
	C214.758713,300.016327 222.227692,303.434418 229.615692,306.933258 
	C251.765823,317.423279 264.574707,335.177460 269.930695,358.668823 
	C270.866180,362.771851 270.922760,367.075287 271.427399,371.669861 
	C265.834595,371.669861 260.756653,371.669861 255.300354,371.669861 
	C254.280334,366.775452 253.306625,361.613770 252.120239,356.501434 
	C248.407318,340.501648 237.826157,329.929932 224.175369,322.070526 
	C212.789474,315.515076 200.718750,310.068146 189.716568,302.947815 
	C176.122025,294.149811 166.276566,281.571991 157.888107,267.725739 
	C149.498428,253.877502 144.254227,239.032608 142.032639,223.107193 
	C138.231171,195.856476 142.830719,170.058273 156.030579,145.860809 
	C156.879974,144.303696 157.980438,142.883530 158.997375,141.026672 
z"/>
<path fill="#FFFFFF" opacity="1.000000" stroke="none" 
	d="
M256.225922,390.030762 
	C261.334778,390.003998 265.960571,390.003998 270.788391,390.003998 
	C270.788391,398.772949 270.788391,407.177368 270.788391,415.791229 
	C265.554535,415.791229 260.483398,415.791229 255.742859,415.791229 
	C255.742859,407.094421 255.742859,398.575958 256.225922,390.030762 
z"/>
<path fill="#FFFFFF" opacity="1.000000" stroke="none" 
	d="
M387.489075,205.807251 
	C377.170105,207.555344 367.360046,207.827087 357.769806,204.026550 
	C339.638611,196.841293 328.139343,184.068924 323.962769,164.809708 
	C321.008087,151.184921 323.703369,138.469330 331.134155,127.176834 
	C340.814728,112.465324 354.577362,103.860115 372.686005,102.959114 
	C388.709595,102.161858 402.135345,107.986633 412.759247,119.447212 
	C430.261597,138.327972 431.844940,162.519806 418.471313,183.775818 
	C411.470276,194.903168 400.566101,201.819733 387.489075,205.807251 
z"/>
</svg>